<?xml version="1.0" encoding="utf-8"?>
<!-- Generator: Adobe Illustrator 16.0.0, SVG Export Plug-In . SVG Version: 6.00 Build 0)  -->
<!DOCTYPE svg PUBLIC "-//W3C//DTD SVG 1.1//EN" "http://www.w3.org/Graphics/SVG/1.1/DTD/svg11.dtd">
<svg version="1.1" id="Слой_1" xmlns="http://www.w3.org/2000/svg" xmlns:xlink="http://www.w3.org/1999/xlink" x="0px" y="0px"
	 width="83.287px" height="83.287px" viewBox="545.729 379.302 83.287 83.287"
	 enable-background="new 545.729 379.302 83.287 83.287" xml:space="preserve">
<g id="Слой_2">
</g>
<image display="none" overflow="visible" enable-background="new    " width="1152" height="864" xlink:href="33B1C704A3027E84.png"  transform="matrix(4.0498 0 0 4.0498 -1737.4626 -1328.6094)">
</image>
<g id="Слой_3">
</g>
<g>
	<g>
		<defs>
			<path id="SVGID_1_" d="M622.943,414.005h-4.337h-14.229h-17.005v14.748h20.475c-1.908,9.37-9.89,14.749-20.475,14.749
				c-12.493,0-22.557-10.063-22.557-22.557s10.064-22.557,22.557-22.557c5.379,0,10.237,1.909,14.055,5.032l11.105-11.105
				c-6.768-5.899-15.443-9.543-25.16-9.543c-21.168,0-38.173,17.004-38.173,38.173s17.004,38.173,38.173,38.173
				c19.087,0,36.438-13.881,36.438-38.173C623.811,418.689,623.463,416.26,622.943,414.005z"/>
		</defs>
		<clipPath id="SVGID_2_">
			<use xlink:href="#SVGID_1_"  overflow="visible"/>
		</clipPath>
		<polygon clip-path="url(#SVGID_2_)" fill="#FBBC05" points="545.729,443.502 545.729,398.388 575.227,420.945 		"/>
	</g>
	<g>
		<defs>
			<path id="SVGID_3_" d="M622.943,414.005h-4.337h-14.229h-17.005v14.748h20.475c-1.908,9.37-9.89,14.749-20.475,14.749
				c-12.493,0-22.557-10.063-22.557-22.557s10.064-22.557,22.557-22.557c5.379,0,10.237,1.909,14.055,5.032l11.105-11.105
				c-6.768-5.899-15.443-9.543-25.16-9.543c-21.168,0-38.173,17.004-38.173,38.173s17.004,38.173,38.173,38.173
				c19.087,0,36.438-13.881,36.438-38.173C623.811,418.689,623.463,416.26,622.943,414.005z"/>
		</defs>
		<clipPath id="SVGID_4_">
			<use xlink:href="#SVGID_3_"  overflow="visible"/>
		</clipPath>
		<polygon clip-path="url(#SVGID_4_)" fill="#EA4335" points="545.729,398.388 575.227,420.945 587.372,410.361 629.016,403.594 
			629.016,379.302 545.729,379.302 		"/>
	</g>
	<g>
		<defs>
			<path id="SVGID_5_" d="M622.943,414.005h-4.337h-14.229h-17.005v14.748h20.475c-1.908,9.37-9.89,14.749-20.475,14.749
				c-12.493,0-22.557-10.063-22.557-22.557s10.064-22.557,22.557-22.557c5.379,0,10.237,1.909,14.055,5.032l11.105-11.105
				c-6.768-5.899-15.443-9.543-25.16-9.543c-21.168,0-38.173,17.004-38.173,38.173s17.004,38.173,38.173,38.173
				c19.087,0,36.438-13.881,36.438-38.173C623.811,418.689,623.463,416.26,622.943,414.005z"/>
		</defs>
		<clipPath id="SVGID_6_">
			<use xlink:href="#SVGID_5_"  overflow="visible"/>
		</clipPath>
		<polygon clip-path="url(#SVGID_6_)" fill="#34A853" points="545.729,443.502 597.783,403.594 611.491,405.329 629.016,379.302 
			629.016,462.589 545.729,462.589 		"/>
	</g>
	<g>
		<defs>
			<path id="SVGID_7_" d="M622.943,414.005h-4.337h-14.229h-17.005v14.748h20.475c-1.908,9.37-9.89,14.749-20.475,14.749
				c-12.493,0-22.557-10.063-22.557-22.557s10.064-22.557,22.557-22.557c5.379,0,10.237,1.909,14.055,5.032l11.105-11.105
				c-6.768-5.899-15.443-9.543-25.16-9.543c-21.168,0-38.173,17.004-38.173,38.173s17.004,38.173,38.173,38.173
				c19.087,0,36.438-13.881,36.438-38.173C623.811,418.689,623.463,416.26,622.943,414.005z"/>
		</defs>
		<clipPath id="SVGID_8_">
			<use xlink:href="#SVGID_7_"  overflow="visible"/>
		</clipPath>
		<polygon clip-path="url(#SVGID_8_)" fill="#4285F4" points="629.016,462.589 575.227,420.945 568.286,415.74 629.016,398.388 		
			"/>
	</g>
</g>
</svg>
